Patient4_TMGait_0pt2_02_right_04_EMG.mot
version=1
nRows=26
nColumns=33
inDegrees=no
endheader
time	1LAddLong	2LGlutMax	3LGlutMed	4LIliopsoas	5LSemiMemb	6LBicFemLong	7LRecFem	8LVastMed	9LVastLat	10LGasMed	11LTibAnt	12lTibPost	13LPeroneusLong	14LSol	15LExtDigLong	16LFlexDigLong	17RAddLong	18RGlutMax	19RGlutMed	20RIliopsoas	21RSemiMemb	22RBicFemLong	23RRecFem	24RVastMed	25RVastLat	26RGasMed	27RTibAnt	28RTibPost	29RPeroneusLong	30RSol	31RExtDigLong	32RFlexDigLong
10.08	0.020905	0.098114	0.23804	0.010071	0.029907	0.018463	0.14786	-0.028839	-0.32105	0.011139	-0.082397	0.005493	-0.028992	-0.070648	-0.47714	-0.007782	-0.007324	-0.10147	-0.71655	-0.21286	0.19714	-0.007172	-0.000153	0.001831	0.014038	0.013885	0.4068	0.003357	-0.03418	-0.068359	-0.000916	-0.021515
10.081	0.026093	0.093384	0.088501	0.015411	0.033875	0.006714	-0.014648	-0.011292	-0.32379	0.03891	-0.043335	0.010681	-0.2536	-0.12512	-0.32776	-0.004578	-0.015259	-0.14282	-0.8139	-0.14252	0.19577	-0.016937	0.015564	-0.077362	-0.016937	0.018768	0.27206	0.00351	-0.027161	-0.13641	-0.002289	-0.009155
10.082	0.044403	0.089722	0.06073	-0.000916	0.037079	0.004272	-0.13748	0.007629	-0.1738	0.051727	-0.006714	-0.016479	-0.0383	-0.15366	0.016327	-0.011292	-0.031586	-0.10986	-0.74219	-0.070953	0.18539	-0.02121	-0.023346	-0.1152	-0.010986	0.028534	0.11826	0.015411	-0.11643	-0.11536	-0.002289	-0.009003
10.083	0.02182	0.092926	0.059052	-0.030823	0.02243	0.067749	-0.16892	0.015411	0.030975	0.057678	0.000458	0.00412	0.68298	-0.32181	0.26199	-0.006409	-0.036469	-0.075531	-0.35263	0.033264	0.19196	-0.016937	-0.01709	-0.10651	0.000916	0.032806	-0.20035	0.003204	-0.084229	-0.042725	-0.004272	-0.009918
10.084	0.027771	0.065002	0.091553	-0.025787	-0.021667	0.06546	-0.16144	0.027466	0.11993	0.042725	-0.029602	0.013733	0.76813	-0.27863	0.32577	0.007477	-0.022888	-0.093994	-0.50049	0.19638	0.20432	-0.031128	0.050201	-0.13306	-0.010986	0.03067	0.1651	0.004272	-0.012207	-0.028992	-0.002289	-0.011292
10.085	0.017548	0.10864	0.40298	-0.018463	-0.060577	0.033112	-0.088959	0.033875	0.16586	-0.024719	-0.077667	0.005341	0.67566	-0.026703	0.29953	0.019989	-0.019989	-0.11917	-0.69458	0.22476	0.19775	0.011597	0.081329	-0.11765	-0.000153	0.021057	0.37933	0.001678	0.034943	-0.009766	-0.003052	-0.015411
10.086	0.020599	0.061188	0.23224	-0.001221	-0.027008	0.010223	-0.19012	0.038605	0.18662	-0.027008	-0.02655	0.002747	-0.25314	0.02121	0.20142	0.007477	-0.02655	-0.086365	-0.4451	0.13245	0.20554	-0.005341	0.077667	-0.12238	0.010834	0.021362	-0.48447	0.001984	-0.029449	0.065765	-0.008545	-0.007019
10.087	0.018311	0.074463	0.1358	0.007172	0.049133	0.051117	-0.12985	0.025635	0.20096	-0.018921	0.049133	0.007629	-0.67291	-0.04364	0.090637	-0.002441	-0.048218	-0.092926	-0.20004	0.078278	0.21988	0.024719	-0.032501	-0.088043	0.00351	0.00351	-0.38147	-0.002289	-0.054016	0.10483	-0.003662	-0.014038
10.088	0.01297	0.10895	0.091248	0.014648	0.073853	0.12604	-0.087128	0.001526	0.1857	0.011292	0.049896	0.007782	-0.62195	-0.052185	-0.039215	-0.00061	-0.075989	-0.11993	-0.45364	0.027618	0.2095	-0.008392	-0.14862	-0.088043	0.027466	-0.007935	-0.055847	-0.001373	-0.036316	0.10376	-0.003052	-0.009308
10.089	-0.000458	0.10605	0.053101	0.010529	0.058746	0.13001	-0.055542	-0.014801	0.2533	-0.005798	0.095673	0.007629	-0.2803	-0.008545	0.070801	-0.00824	-0.096741	-0.10101	-0.25131	0.021515	0.21225	0.014954	-0.12268	-0.076447	0.01236	-0.015869	0.37613	0	-0.056152	-0.017853	-0.000305	-0.003052
10.09	-0.003967	0.11902	0.010071	0.01236	0.041199	0.13428	-0.055389	-0.014191	0.22766	-0.019684	0.057678	0.009308	-0.32623	0.066681	-0.048676	-0.001526	-0.073395	-0.065613	-0.37857	0.056915	0.2124	-0.009766	-0.027618	-0.052338	0.006561	-0.010071	0.71381	0.002899	-0.12634	-0.064087	0.00061	-0.001068
10.091	-0.001373	0.090332	-0.19196	0.002289	0.014496	0.1326	-0.018463	0.002899	0.16525	-0.003357	0.049591	0.008698	-0.17639	0.082855	-0.13473	-0.009308	-0.045166	-0.071869	-0.71899	0.029602	0.21378	0.00946	-0.020905	-0.02594	0.012054	-0.014343	0.5426	0.002747	-0.068359	-0.077057	-0.002594	0.003052
10.092	-0.015106	0.076752	-0.37872	-0.001831	-0.015564	0.09079	0.007324	-0.00351	0.051117	-0.001068	0.12741	0.010376	-0.008698	0.09903	-0.099182	-0.003967	0.046844	-0.12665	-0.7901	0.023193	0.20386	0.005493	-0.070648	-0.040436	-0.006409	-0.028992	0.60226	0.001984	-0.029449	-0.046234	0	-0.000305
10.093	-0.012054	0.070801	-0.24887	-0.013275	-0.043335	0.005188	-0.074005	0.018768	-0.10666	-0.005798	0.096893	0.001373	0.053253	0.10696	0.013275	0.00351	0.046539	-0.10895	-0.91248	-0.039673	0.2066	0.020294	-0.13092	-0.075836	-0.011139	-0.042877	0.87036	0.002899	-0.032501	0.001221	-0.001526	-0.011292
10.094	-0.003967	0.12253	-0.013123	0.013275	-0.010681	-0.13702	-0.077667	0.032959	-0.15411	0.007782	0.12283	0.003052	-0.14389	0.079193	-0.10559	0.009155	0.030975	-0.094299	-0.99579	-0.072632	0.20569	0.002747	-0.14496	-0.055847	0.005493	-0.041809	0.53513	0.001526	-0.023956	-0.067139	-0.004272	-0.003967
10.095	-0.018768	0.17548	-0.085907	0.006256	0.024567	-0.0737	-0.012665	0.013275	-0.06073	0.011444	0.039063	0.003815	0.1886	0.008698	-0.21301	-0.002136	0.027313	-0.078888	-0.56442	-0.1149	0.21225	0.028076	-0.086975	-0.039368	0.00473	-0.038147	0.70343	0.01358	-0.11261	-0.079498	-0.00061	-0.007019
10.096	-0.027313	0.12253	0.029602	0.028687	-0.037079	-0.04837	0.096741	0.015259	-0.062714	-0.000916	-0.036163	0.000916	0.1648	0.022888	0.039673	-0.009766	0.033112	-0.082092	0.36774	-0.1268	0.21179	0.038757	-0.013885	0.015411	-0.013885	-0.038452	-0.96024	-0.001678	-0.051422	-0.083618	-0.003967	0.00061
10.097	-0.020142	0.10056	0.029755	0.015717	-0.058441	-0.070953	0.14374	0.019989	-0.068207	-0.011902	-0.10559	0.009308	-0.032349	0.072632	0.033569	-0.004578	0.024567	-0.13534	-0.46829	-0.087891	0.21988	0.035858	0.03006	0.054016	0.005646	-0.046997	-1.7116	-0.001984	-0.027008	-0.10941	-0.003357	-0.00885
10.098	-0.016479	0.11261	0.18097	-0.015564	-0.036011	-0.080109	0.020142	0.022278	-0.065613	0.009766	-0.065002	0.00412	-0.29953	0.034943	0.4248	0.001678	0.017395	-0.1506	-0.23483	-0.13001	0.20844	0.031891	0.013733	0.026855	0.016174	-0.031891	-1.0628	0.000305	0.067596	-0.15045	-0.00412	-0.014954
10.099	-0.018158	0.10101	0.093384	-0.011902	-0.041656	-0.11688	0.007477	-0.009613	-0.02533	0.027313	-0.032501	0.007477	-0.16922	-0.1236	0.89264	-0.008087	0.020447	-0.10483	0.24262	-0.059052	0.20874	0.045319	-0.12344	0.007629	0.012665	-0.006561	-0.057526	0.001068	0.21408	-0.17258	-0.005035	-0.004883
10.1	0.001526	0.12314	0.032501	-0.007172	-0.018311	-0.13519	0.065308	-0.015717	-0.06958	0.00473	0.014801	0.006866	0.15259	-0.028687	-0.1268	-0.003357	0.021362	-0.11459	-0.13367	-0.054321	0.20645	0.051117	-0.17288	-0.052795	0.005188	-0.011749	0.37933	0.002136	0.081482	-0.18753	-0.007782	-0.005188
10.101	-0.005951	0.12802	0.23911	0.014954	0.095367	-0.10544	0.099335	-0.005188	-0.065002	0	-0.008545	0.00412	0.46997	0.003662	-0.32288	0.000763	-0.001068	-0.066071	-0.10849	-0.043945	0.20905	0.047607	-0.10666	-0.057983	0.000153	-0.021515	0.31311	-0.003357	0.078125	-0.041504	-0.001984	-0.008087
10.102	0.00946	0.091095	0.16205	0.023804	0.11017	-0.008392	0.028992	0.007629	-0.026245	-0.010681	0.008698	-0.002899	0.11124	-0.084839	-0.39185	-0.009766	-0.002136	-0.045471	0.036469	0.032043	0.20508	0.049591	-0.12528	-0.000916	0.001678	-0.022583	-0.26642	-0.006866	0.1358	0.1355	-0.00061	-0.009155
10.103	0.014648	0.08316	0.16113	0.013885	0.083923	0.07309	0.01236	-0.00946	-0.03479	0.052032	0.031738	0.010681	0.052185	-0.047913	0.2005	-0.029602	-0.010376	-0.013733	-0.44784	0.10407	0.22827	0.058136	-0.12131	-0.007782	0.007477	-0.018768	-0.70847	0.000458	0.098419	0.121	-0.00946	-0.008087
10.104	0.007477	0.10208	0.11337	0.014343	0.006561	0.049438	0.11566	-0.005188	0.041962	0.039673	0.11398	0.007935	-0.021667	-0.024261	-0.045319	-0.011292	-0.020447	0.027161	-0.63889	0.11398	0.2121	0.057068	-0.13336	-0.026093	0.019836	-0.014496	-0.72815	-0.000153	0.010223	0.12146	-0.002441	-0.00824
10.105	0.016479	0.05661	0.034027	0.015259	-0.076141	0.022888	0.054626	-0.001984	0.28824	0.020905	0.22888	0.001984	0.003967	-0.046082	-0.18433	-0.013123	-0.018768	0.079193	-0.4602	0.11047	0.20721	0.062561	-0.09201	-0.025177	0.010071	-0.018463	-0.18082	0.001678	-0.055542	0.11887	-0.00061	0.002594
